<svg xmlns="http://www.w3.org/2000/svg" viewBox="0 0 500 500"><g id="freepik--background-simple--inject-9"><path d="M334.58,119.45s-52.13-29.16-111.94-7-97.93,79.8-130,125.71-27.19,99,10.43,129.24,71.72.9,130.33,9.16,72.88,19.26,126.89-5.45,76-101,47.66-165S334.58,119.45,334.58,119.45Z" style="fill:#E3B9B9"></path><path d="M334.58,119.45s-52.13-29.16-111.94-7-97.93,79.8-130,125.71-27.19,99,10.43,129.24,71.72.9,130.33,9.16,72.88,19.26,126.89-5.45,76-101,47.66-165S334.58,119.45,334.58,119.45Z" style="fill:#fff;opacity:0.8"></path></g><g id="freepik--Background--inject-9"><path d="M217,292.53s.81-23.14,0-26-23.14-22.73-23.14-22.73-6.09-41.41-16.64-50.75L91.15,203.61s-6.09,5.69-5.68,24,1.22,26.79-3.25,34.91-8.93,32.08-.4,44.26,11.36,15,19.08,14.61S217,292.53,217,292.53Z" style="fill:#E3B9B9"></path><path d="M217,292.53s.81-23.14,0-26-23.14-22.73-23.14-22.73-6.09-41.41-16.64-50.75L91.15,203.61s-6.09,5.69-5.68,24,1.22,26.79-3.25,34.91-8.93,32.08-.4,44.26,11.36,15,19.08,14.61S217,292.53,217,292.53Z" style="fill:#fff;opacity:0.7000000000000001"></path><path d="M217,266.54,75.73,294.15s2.84,30.86,22.33,28,119.76-25.57,119.36-27.6S217,266.54,217,266.54Z" style="fill:#E3B9B9"></path><path d="M217,266.54,75.73,294.15s2.84,30.86,22.33,28,119.76-25.57,119.36-27.6S217,266.54,217,266.54Z" style="fill:#fff;opacity:0.5"></path><path d="M362.13,207.21s-3.13,85.72,0,87.06,34.82-8,36.16-10.27,7.14-85.71,0-85.71S362.13,207.21,362.13,207.21Z" style="fill:#E3B9B9"></path><path d="M359,207.66c2.68,1.79.45,81.25-4.91,87.5s-46.88,14.29-47.77,9.82.45-115.62.45-115.62S356.32,205.88,359,207.66Zm39.29-9.37s-43.75-19.2-50.9-18.75-45.53,6.69-40.62,12.05,48.66,15.18,55.36,15.62S398.29,198.29,398.29,198.29Z" style="fill:#E3B9B9"></path><path d="M362.13,207.21s-3.13,85.72,0,87.06,34.82-8,36.16-10.27,7.14-85.71,0-85.71S362.13,207.21,362.13,207.21Z" style="fill:#fff;opacity:0.5"></path><path d="M359,207.66c2.68,1.79.45,81.25-4.91,87.5s-46.88,14.29-47.77,9.82.45-115.62.45-115.62S356.32,205.88,359,207.66Zm39.29-9.37s-43.75-19.2-50.9-18.75-45.53,6.69-40.62,12.05,48.66,15.18,55.36,15.62S398.29,198.29,398.29,198.29Z" style="fill:#fff;opacity:0.7000000000000001"></path><path d="M95.4,203s54.6-9,82.6-10c10,10,12.85,36.74,15.35,49.74,0,0,23.65,22.4,23.65,24.26s.67,30,.67,30" style="fill:none;stroke:#263238;stroke-linecap:round;stroke-linejoin:round"></path><line x1="199.67" y1="111.67" x2="199.67" y2="248.33" style="fill:none;stroke:#263238;stroke-linecap:round;stroke-linejoin:round"></line><polyline points="83.49 261.52 146.66 251.25 192.24 242.74" style="fill:none;stroke:#263238;stroke-linecap:round;stroke-linejoin:round"></polyline><line x1="75.28" y1="293.6" x2="211.18" y2="267.62" style="fill:none;stroke:#263238;stroke-linecap:round;stroke-linejoin:round"></line><path d="M121,255.5s22,22,21.5,25l-1,31.5" style="fill:none;stroke:#263238;stroke-linecap:round;stroke-linejoin:round"></path><line x1="95.19" y1="322.71" x2="209.69" y2="297.7" style="fill:none;stroke:#263238;stroke-linecap:round;stroke-linejoin:round"></line><polyline points="307.5 248.5 307.5 190 358.5 207.5 358.5 287.5" style="fill:none;stroke:#263238;stroke-linecap:round;stroke-linejoin:round"></polyline><line x1="307" y1="253.67" x2="307" y2="309" style="fill:none;stroke:#263238;stroke-linecap:round;stroke-linejoin:round"></line><polyline points="358.5 207.5 399.5 197.5 399.5 280" style="fill:none;stroke:#263238;stroke-linecap:round;stroke-linejoin:round"></polyline><polygon points="307.5 190 351.5 180.5 399.5 197.5 358.5 207.5 307.5 190" style="fill:none;stroke:#263238;stroke-linecap:round;stroke-linejoin:round"></polygon><line x1="331.5" y1="198.5" x2="331.5" y2="299.67" style="fill:none;stroke:#263238;stroke-linecap:round;stroke-linejoin:round"></line><path d="M337.57,245.42c0,1.86-.82,3.37-1.82,3.37s-1.82-1.51-1.82-3.37.81-3.37,1.82-3.37S337.57,243.56,337.57,245.42Z" style="fill:#263238"></path><path d="M329,242.3c0,1.87-.81,3.38-1.82,3.38s-1.81-1.51-1.81-3.38.81-3.37,1.81-3.37S329,240.44,329,242.3Z" style="fill:#263238"></path><line x1="217.67" y1="274.33" x2="290.33" y2="311" style="fill:none;stroke:#263238;stroke-linecap:round;stroke-linejoin:round"></line></g><g id="freepik--Plants--inject-9"><path d="M360.09,155.63a12.48,12.48,0,0,0-2.81,5.85l-5.65,3.17v-15l.11.15,9-6.58a16,16,0,0,0,9.48-1.47c4.62-2.49,8-11,8-11s-11-1.24-14.74,3.38a12.8,12.8,0,0,0-3.06,8.61l-8.78,6.43V138.12a12.17,12.17,0,0,0,6.69-8.07c1.6-6.21-6.93-18.47-6.93-18.47s-8.88,12.61-7.1,19a10.68,10.68,0,0,0,6.75,7.54v24l-6.34-5.28a11.88,11.88,0,0,0-3.26-9.17c-4.26-4.8-15.63-4.44-15.63-4.44s4.8,9.59,8.88,12.79c3.57,2.79,8.5,1.65,9.69,1.32l6.66,5.55v7.29h-9.9l4,25.25H357.3l4-25.25h-9.71v-4.82l6.21-3.48a14.1,14.1,0,0,0,9.72-.71c5-2.49,9.05-7.82,9.05-7.82S364.71,150.3,360.09,155.63Z" style="fill:#263238"></path></g><g id="freepik--Device--inject-9"><path d="M274.81,348l-43.65,12.78a1.2,1.2,0,0,0-.42,2.08L247,376.16a7.31,7.31,0,0,0,6.91,1.3l40-13.08a1.2,1.2,0,0,0,.42-2L279,348.88A4.45,4.45,0,0,0,274.81,348Z" style="fill:#263238"></path><path d="M253.55,348.72a8.43,8.43,0,0,0-3.63,12.69l.08.12c2.94,3.82,17.63,5.87,24.38,4.11s7.76-6.61,3.52-10.28c-2.59-2.24-12-7.34-19.09-7.63A11.67,11.67,0,0,0,253.55,348.72Z" style="fill:#fff;stroke:#263238;stroke-linecap:round;stroke-linejoin:round"></path><path d="M320,369.5l-31.8-27.77a2.65,2.65,0,0,1,1-4.54l64.48-17.87a9.49,9.49,0,0,1,8.6,1.85L393.5,347Z" style="fill:#E3B9B9;stroke:#263238;stroke-linecap:round;stroke-linejoin:round"></path><polygon points="354.15 343.87 356.67 346.07 362.13 344.64 359.58 342.41 354.15 343.87" style="fill:#263238"></polygon><polygon points="342.32 333.52 347.81 332.11 345.36 329.96 339.89 331.39 342.32 333.52" style="fill:#263238"></polygon><polygon points="346.53 329.66 348.99 331.81 354.48 330.41 352 328.24 346.53 329.66" style="fill:#263238"></polygon><polygon points="356.57 330.91 359.2 333.21 364.16 331.94 361.42 329.67 356.57 330.91" style="fill:#263238"></polygon><polygon points="360.12 334.01 362.75 336.32 367.86 335.01 365.11 332.73 360.12 334.01" style="fill:#263238"></polygon><polygon points="372.56 338.92 367.33 340.32 369.92 342.59 375.28 341.18 372.56 338.92" style="fill:#263238"></polygon><polygon points="366.17 340.64 360.74 342.1 363.29 344.33 368.75 342.89 366.17 340.64" style="fill:#263238"></polygon><polygon points="363.66 337.12 366.43 339.53 371.62 338.14 368.81 335.8 363.66 337.12" style="fill:#263238"></polygon><polygon points="352.54 334.92 358.03 333.51 355.39 331.21 349.9 332.61 352.54 334.92" style="fill:#263238"></polygon><polygon points="332.32 348.71 329.16 345.94 323.67 347.34 326.9 350.17 332.32 348.71" style="fill:#263238"></polygon><polygon points="328.25 345.14 325.61 342.83 320.12 344.24 322.75 346.54 328.25 345.14" style="fill:#263238"></polygon><polygon points="324.7 342.04 322.06 339.73 316.57 341.13 319.21 343.44 324.7 342.04" style="fill:#263238"></polygon><polygon points="335.66 335.22 341.15 333.82 338.72 331.69 333.25 333.12 335.66 335.22" style="fill:#263238"></polygon><polygon points="335.64 351.61 333.23 349.5 327.8 350.96 330.18 353.04 335.64 351.61" style="fill:#263238"></polygon><polygon points="328.99 336.93 334.48 335.52 332.08 333.42 326.61 334.84 328.99 336.93" style="fill:#263238"></polygon><polygon points="322.32 338.63 327.82 337.23 325.44 335.15 319.97 336.57 322.32 338.63" style="fill:#263238"></polygon><polygon points="315.66 340.33 321.15 338.93 318.8 336.88 313.33 338.3 315.66 340.33" style="fill:#263238"></polygon><polygon points="343.67 342.23 346.66 344.85 352.09 343.39 349.16 340.82 343.67 342.23" style="fill:#263238"></polygon><polygon points="343.24 334.32 345.87 336.62 351.36 335.22 348.73 332.91 343.24 334.32" style="fill:#263238"></polygon><polygon points="363.04 345.43 357.58 346.87 360.37 349.31 365.79 347.84 363.04 345.43" style="fill:#263238"></polygon><polygon points="349.42 339.73 354.91 338.32 352.27 336.02 346.78 337.42 349.42 339.73" style="fill:#263238"></polygon><polygon points="339.2 338.33 344.7 336.92 342.06 334.62 336.57 336.02 339.2 338.33" style="fill:#263238"></polygon><polygon points="353.45 335.72 356.08 338.02 361.58 336.62 358.94 334.31 353.45 335.72" style="fill:#263238"></polygon><polygon points="339.47 354.96 336.55 352.4 331.09 353.84 334.05 356.43 339.47 354.96" style="fill:#263238"></polygon><polygon points="355.82 339.12 350.33 340.52 353.25 343.08 358.68 341.62 355.82 339.12" style="fill:#263238"></polygon><polygon points="362.49 337.42 357 338.82 359.84 341.31 365.27 339.85 362.49 337.42" style="fill:#263238"></polygon><polygon points="332.54 340.03 338.03 338.63 335.39 336.32 329.9 337.73 332.54 340.03" style="fill:#263238"></polygon><polygon points="349.79 348.92 344.33 350.35 347.21 352.87 352.63 351.4 349.79 348.92" style="fill:#263238"></polygon><polygon points="356.41 347.17 350.96 348.61 353.79 351.09 359.21 349.62 356.41 347.17" style="fill:#263238"></polygon><polygon points="325.87 341.74 331.36 340.33 328.73 338.02 323.24 339.43 325.87 341.74" style="fill:#263238"></polygon><polygon points="346.05 353.18 343.17 350.66 337.71 352.1 340.63 354.65 346.05 353.18" style="fill:#263238"></polygon><polygon points="352.99 344.18 347.56 345.64 350.05 347.81 355.5 346.38 352.99 344.18" style="fill:#263238"></polygon><polygon points="334.91 343.44 332.28 341.13 326.79 342.53 329.42 344.84 334.91 343.44" style="fill:#263238"></polygon><polygon points="338.91 346.94 335.82 344.23 330.33 345.64 333.48 348.4 338.91 346.94" style="fill:#263238"></polygon><polygon points="342.26 349.87 339.82 347.73 334.39 349.19 336.8 351.3 342.26 349.87" style="fill:#263238"></polygon><polygon points="316.09 348.25 314.91 348.55 315.83 349.35 317 349.05 316.09 348.25" style="fill:#263238"></polygon><polygon points="325.74 350.48 322.49 347.64 317 349.05 320.31 351.94 325.74 350.48" style="fill:#263238"></polygon><polygon points="329.01 353.35 326.64 351.27 321.21 352.73 323.56 354.79 329.01 353.35" style="fill:#263238"></polygon><polygon points="345.5 345.16 342.49 342.53 337 343.93 340.07 346.62 345.5 345.16" style="fill:#263238"></polygon><polygon points="320.31 351.94 319.15 352.25 320.05 353.04 321.21 352.73 320.31 351.94" style="fill:#263238"></polygon><polygon points="321.58 346.84 318.94 344.54 313.45 345.94 316.09 348.25 321.58 346.84" style="fill:#263238"></polygon><polygon points="348.88 348.12 346.4 345.95 340.98 347.42 343.43 349.56 348.88 348.12" style="fill:#263238"></polygon><polygon points="312.54 345.14 311.37 345.44 312.28 346.24 313.45 345.94 312.54 345.14" style="fill:#263238"></polygon><polygon points="336.09 343.13 341.58 341.73 338.94 339.43 333.45 340.83 336.09 343.13" style="fill:#263238"></polygon><polygon points="336.48 359.88 333.8 357.53 328.38 359 331.21 361.48 336.48 359.88" style="fill:#263238"></polygon><polygon points="327.22 359.31 321.65 360.82 324.71 363.45 330.08 361.82 327.22 359.31" style="fill:#263238"></polygon><polygon points="374.43 346.54 376.01 347.92 381.42 346.28 379.94 345.05 374.43 346.54" style="fill:#263238"></polygon><polygon points="327.47 358.21 326.31 358.52 327.22 359.31 328.38 359 327.47 358.21" style="fill:#263238"></polygon><polygon points="345.61 337.72 340.12 339.13 342.75 341.43 348.24 340.03 345.61 337.72" style="fill:#263238"></polygon><polygon points="323.56 354.79 322.39 355.09 323.3 355.89 324.47 355.58 323.56 354.79" style="fill:#263238"></polygon><polygon points="318.03 343.74 315.4 341.43 309.9 342.84 312.54 345.14 318.03 343.74" style="fill:#263238"></polygon><polygon points="332.89 356.74 329.92 354.14 324.47 355.58 327.47 358.21 332.89 356.74" style="fill:#263238"></polygon><polygon points="299.56 341.88 301.86 343.86 307.82 342.34 305.52 340.33 299.56 341.88" style="fill:#263238"></polygon><polygon points="364.2 345.12 366.95 347.53 372.37 346.06 369.66 343.69 364.2 345.12" style="fill:#263238"></polygon><polygon points="366.69 348.63 361.27 350.1 363.21 351.79 368.48 350.19 366.69 348.63" style="fill:#263238"></polygon><polygon points="373.27 346.85 367.85 348.32 369.61 349.85 374.88 348.26 373.27 346.85" style="fill:#263238"></polygon><polygon points="376.22 341.96 370.82 343.38 373.53 345.75 379 344.27 376.22 341.96" style="fill:#263238"></polygon><polygon points="308.99 342.04 307.82 342.34 308.73 343.14 309.9 342.84 308.99 342.04" style="fill:#263238"></polygon><polygon points="346.96 353.97 341.54 355.44 344.01 357.61 349.28 356.01 346.96 353.97" style="fill:#263238"></polygon><polygon points="355.65 330.11 360.47 328.88 357.86 326.71 353.17 327.93 355.65 330.11" style="fill:#263238"></polygon><polygon points="360.12 350.41 354.69 351.88 356.81 353.73 362.08 352.13 360.12 350.41" style="fill:#263238"></polygon><polygon points="353.54 352.19 348.12 353.66 350.41 355.67 355.68 354.07 353.54 352.19" style="fill:#263238"></polygon><polygon points="317.63 357.38 320.73 360.03 326.31 358.52 323.3 355.89 317.63 357.38" style="fill:#263238"></polygon><polygon points="312.16 338.6 306.69 340.03 308.99 342.04 314.48 340.63 312.16 338.6" style="fill:#263238"></polygon><polygon points="302.79 344.66 305.47 346.95 311.37 345.44 308.73 343.14 302.79 344.66" style="fill:#263238"></polygon><polygon points="342.88 357.95 340.38 355.75 334.96 357.22 337.61 359.54 342.88 357.95" style="fill:#263238"></polygon><polygon points="314.36 354.57 316.71 356.59 322.39 355.09 320.05 353.04 314.36 354.57" style="fill:#263238"></polygon><polygon points="310 350.84 313.44 353.79 319.15 352.25 315.83 349.35 310 350.84" style="fill:#263238"></polygon><polygon points="306.4 347.75 309.07 350.04 314.91 348.55 312.28 346.24 306.4 347.75" style="fill:#263238"></polygon><path d="M339.12,316.33,320,369.5,393.5,347l23.41-51.4a2.37,2.37,0,0,0-2.79-3.26l-69.7,19.09A7.83,7.83,0,0,0,339.12,316.33Z" style="fill:#E3B9B9;stroke:#263238;stroke-linecap:round;stroke-linejoin:round"></path><path d="M377.53,326.18c1,2.29-.73,5.19-3.79,6.47s-6.31.46-7.27-1.83.73-5.19,3.79-6.47S376.57,323.89,377.53,326.18Z" style="fill:#263238"></path></g><g id="freepik--Papers--inject-9"><polygon points="196.1 366.94 142.77 379.45 175.27 430.36 231.52 418.84 196.1 366.94" style="fill:#fff;stroke:#263238;stroke-linecap:round;stroke-linejoin:round"></polygon><polygon points="160 369 199 417.5 252 400.5 209 356 160 369" style="fill:#fff;stroke:#263238;stroke-linecap:round;stroke-linejoin:round"></polygon><line x1="174.56" y1="376.17" x2="208.3" y2="366.19" style="fill:none;stroke:#263238;stroke-linecap:round;stroke-linejoin:round"></line><line x1="179.75" y1="380.84" x2="213.49" y2="370.86" style="fill:none;stroke:#263238;stroke-linecap:round;stroke-linejoin:round"></line><line x1="184.94" y1="385.51" x2="218.68" y2="375.53" style="fill:none;stroke:#263238;stroke-linecap:round;stroke-linejoin:round"></line><line x1="190.13" y1="390.18" x2="223.88" y2="380.21" style="fill:none;stroke:#263238;stroke-linecap:round;stroke-linejoin:round"></line><line x1="195.32" y1="394.86" x2="229.07" y2="384.88" style="fill:none;stroke:#263238;stroke-linecap:round;stroke-linejoin:round"></line><line x1="200.51" y1="399.53" x2="234.26" y2="389.55" style="fill:none;stroke:#263238;stroke-linecap:round;stroke-linejoin:round"></line><line x1="205.71" y1="404.2" x2="239.45" y2="394.22" style="fill:none;stroke:#263238;stroke-linecap:round;stroke-linejoin:round"></line></g><g id="freepik--Character--inject-9"><path d="M222.5,225.5l-71,15.5s3.5,56,9.5,79c0,0,6.25,22.14,9.81,29l66.95-17.56S228,305.5,222.5,225.5Z" style="fill:#263238;stroke:#263238;stroke-linecap:round;stroke-linejoin:round"></path><path d="M272.41,233.54c-5.52-4.93-12.19-3.77-18.86-6.38a125.16,125.16,0,0,0-14.49-4.37l-1.17-.27s-2.9-6.09-8.12-5.22S202.8,233,201.06,237s-1.74,42.64-1.45,56c.19,9.08,2,16.27,5.34,21.23l-5.28,27.44L273.57,322s-5.05-2.6-5.23-17.4c0-2.86,1.16-10.44,2.62-19.14a86,86,0,0,0,.87-17.41,63.52,63.52,0,0,1,7.54,3.2c4.06,2,28.13,11.89,28.13,11.89l7-12.76S277.92,238.47,272.41,233.54Z" style="fill:#E3B9B9;stroke:#263238;stroke-linecap:round;stroke-linejoin:round"></path><line x1="89.67" y1="370.33" x2="426.5" y2="282.5" style="fill:none;stroke:#263238;stroke-linecap:round;stroke-linejoin:round"></line><path d="M206.21,290.23s6.71-15.78,9.86-29.19" style="fill:none;stroke:#263238;stroke-linecap:round;stroke-linejoin:round"></path><path d="M203.85,295s12.22-12.23,15.77-24.46" style="fill:none;stroke:#263238;stroke-linecap:round;stroke-linejoin:round"></path><path d="M238.93,306.42s11.94-6.23,17.13-11.94" style="fill:none;stroke:#263238;stroke-linecap:round;stroke-linejoin:round"></path><path d="M217.8,235.51s.66.06,3,4.7S226,252.39,226,252.39l5.22-5.22,4.93,6.67" style="fill:none;stroke:#263238;stroke-linecap:round;stroke-linejoin:round"></path><path d="M248.78,229.31s2.16,2.49,3.9,8,1.74,6.67,1.74,6.67l-7-1.45-1.16,9.86" style="fill:none;stroke:#263238;stroke-linecap:round;stroke-linejoin:round"></path><polyline points="270.67 251.23 271.82 268.06 274.44 246.59" style="fill:none;stroke:#263238;stroke-linecap:round;stroke-linejoin:round"></polyline><path d="M242.11,217.09,240,224.85a52.14,52.14,0,0,1,4.4,13.31c1.77,9.74-.09,29-.09,29s-8.2-18.12-12.94-26.75-6.48-12.95-6.91-17.26,2.59-15.53,3.45-16.83S242.11,217.09,242.11,217.09Z" style="fill:#fff;stroke:#263238;stroke-linecap:round;stroke-linejoin:round"></path><path d="M258.51,148.92a35.22,35.22,0,0,0-35.38-6C202.42,150.64,202,174.8,202,188.61s-5.75,36.41-16.53,46.76-15,21.41-12.38,33.06,13.37,18.55,21.14,17.69,3-35.38,10.79-42.28,17.69-13,24.16-32.36a36.68,36.68,0,0,0,7.33-16c1.73-9.49,8.2-24.59,15.1-25.88s9.07,19.41,6.48,27.18-15.54,16.83-16,20.28a38.39,38.39,0,0,1-2.15,7.76s7.5,4.63,20.71,6a22.4,22.4,0,0,0,5.6,0S269.35,228.25,278,214c8.5-14,.49-48.8-9-57S258.51,148.92,258.51,148.92Z" style="fill:#263238;stroke:#263238;stroke-linecap:round;stroke-linejoin:round"></path><path d="M188.1,239.65a39.8,39.8,0,0,1-4.33,2.12" style="fill:none;stroke:#fff;stroke-linecap:round;stroke-linejoin:round"></path><path d="M184.42,236.66s-12,6.68-11.64,24.63A30.89,30.89,0,0,0,181,281" style="fill:none;stroke:#fff;stroke-linecap:round;stroke-linejoin:round"></path><path d="M217.08,172.53c-4.57,17.77-6.47,40.42-12.74,51.7a38.42,38.42,0,0,1-11,12" style="fill:none;stroke:#fff;stroke-linecap:round;stroke-linejoin:round"></path><path d="M260.32,162.86s1-5.39-5.4-10.79c-6.09-5.13-28.95-2-35.82,13.94" style="fill:none;stroke:#fff;stroke-linecap:round;stroke-linejoin:round"></path><path d="M242.65,143a21.44,21.44,0,0,0-15.38.3A34.13,34.13,0,0,0,205.35,172c-1.35,12.14.34,31-5.06,42.82" style="fill:none;stroke:#fff;stroke-linecap:round;stroke-linejoin:round"></path><path d="M251.21,148a22.08,22.08,0,0,0-3.45-2.57" style="fill:none;stroke:#fff;stroke-linecap:round;stroke-linejoin:round"></path><path d="M277.85,210.75a45.2,45.2,0,0,0,.73-5.09" style="fill:none;stroke:#fff;stroke-linecap:round;stroke-linejoin:round"></path><path d="M278.73,201c-.51-20.93-16.39-33.74-16.39-33.74" style="fill:none;stroke:#fff;stroke-linecap:round;stroke-linejoin:round"></path><path d="M259.8,165.74s7.34,16,3.89,28.48-10.79,22.87-16,25.46-18.55-8.2-18.55-8.2,4.31-9.49,4.31-19.42,3.46-22,11.22-25.88A18.52,18.52,0,0,1,259.8,165.74Z" style="fill:#fff;stroke:#263238;stroke-linecap:round;stroke-linejoin:round"></path><path d="M251,191a13.91,13.91,0,0,0,.4,5.5c.83,2.29,2.91,3.74,1.25,4.16a21.26,21.26,0,0,1-4.79.21" style="fill:none;stroke:#263238;stroke-linecap:round;stroke-linejoin:round"></path><path d="M245.28,207.45a7.27,7.27,0,0,0,4.89.82" style="fill:none;stroke:#263238;stroke-linecap:round;stroke-linejoin:round"></path><path d="M243.9,191.07c0,1.15-.51,2.08-1.14,2.08s-1.15-.93-1.15-2.08.51-2.08,1.15-2.08S243.9,189.92,243.9,191.07Z" style="fill:#263238"></path><path d="M258.18,190.42c0,1.14-.51,2.08-1.14,2.08s-1.15-.94-1.15-2.08.52-2.08,1.15-2.08S258.18,189.27,258.18,190.42Z" style="fill:#263238"></path><path d="M261.38,184.31a1,1,0,0,1-1-.31,3.05,3.05,0,0,0-2.37-1.32,4.17,4.17,0,0,0-2.6,1.72,1,1,0,0,1-1.65-1.14c.07-.1,1.71-2.44,4.14-2.58a4.91,4.91,0,0,1,4,2,1,1,0,0,1-.1,1.41A1.06,1.06,0,0,1,261.38,184.31Z" style="fill:#263238"></path><path d="M245.84,185a1.13,1.13,0,0,1-.74-.26c-3.54-2.8-6.35-.37-6.47-.27a1.21,1.21,0,0,1-1.65-.05,1.07,1.07,0,0,1,.06-1.57,7.33,7.33,0,0,1,9.55.19,1.07,1.07,0,0,1,.15,1.56A1.2,1.2,0,0,1,245.84,185Z" style="fill:#263238"></path><path d="M248.22,191.6a6.34,6.34,0,1,1-6.34-6.33A6.34,6.34,0,0,1,248.22,191.6Z" style="fill:none;stroke:#263238;stroke-linecap:round;stroke-linejoin:round"></path><line x1="235.66" y1="192.29" x2="233.7" y2="191.47" style="fill:none;stroke:#263238;stroke-linecap:round;stroke-linejoin:round"></line><path d="M264.41,190.48a6.34,6.34,0,1,1-6.33-6.34A6.34,6.34,0,0,1,264.41,190.48Z" style="fill:none;stroke:#263238;stroke-linecap:round;stroke-linejoin:round"></path><path d="M248.22,191.6a2,2,0,0,1,3.58.36" style="fill:none;stroke:#263238;stroke-linecap:round;stroke-linejoin:round"></path><path d="M204.6,312.9s2.39-19,3.4-30.9,2.08-38.53-5-41.5-14.92-.79-18.62,17.67-4,60.33-4,60.33Z" style="fill:#E3B9B9;stroke:#263238;stroke-linecap:round;stroke-linejoin:round"></path><path d="M208.51,323.11S241.69,347,244.88,347s13.92-3.77,18.27-2.61,9,10.15,9.87,10.73,2.32,2.32.87,3.19-10.16-2.9-11.61-2.9a4.46,4.46,0,0,1-2.32-.58l-3.77-.87s10.44,5.22,11.31,5.51.3,1.45-2.61,1.45-6.38-1.74-8.41-2.32a16.07,16.07,0,0,0-6.67-1.16c-4.06,0-11.6-4.06-11.6-4.06s-33-10.5-40.57-12.82-14.12-8.34-14.41-9.21S200.68,323.4,208.51,323.11Z" style="fill:#fff;stroke:#263238;stroke-linecap:round;stroke-linejoin:round"></path><path d="M258.6,349.33s11.11,3.61,14.42,5.82" style="fill:none;stroke:#263238;stroke-linecap:round;stroke-linejoin:round"></path><path d="M260,346.26s6.38.71,9.22,3.31" style="fill:none;stroke:#263238;stroke-linecap:round;stroke-linejoin:round"></path><path d="M203.25,306.43s-20.14,3.89-23,5.92-2.27,5.54-1.4,7.57.87,12.18,4.06,14.5c1,.76,20.88-6.09,24.65-7s4.43-6.24,3-11.46S209.05,303.24,203.25,306.43Z" style="fill:#E3B9B9;stroke:#263238;stroke-linecap:round;stroke-linejoin:round"></path><path d="M297.06,260.8s-5.8,9.28-6.09,14.22.87,5.22,2.9,6.67,11.31,5.51,17.4,6.09,11.89-12.18,12.18-16.24-8.7-10.45-15.08-13.06S297.35,258.48,297.06,260.8Z" style="fill:#E3B9B9;stroke:#263238;stroke-linecap:round;stroke-linejoin:round"></path><path d="M286,235.57s37.12,31.32,41.18,38-2.9,12.47-8.12,12.76-9.28-5.22-14.5-11S280,239.05,280,239.05Z" style="fill:#fff;stroke:#263238;stroke-linecap:round;stroke-linejoin:round"></path><path d="M280.24,221.94s-4.93,14.5-4.93,16.82,3.19,3.77,6.09,3.77,5.51-4.06,7.25-9,3.77-11,1.74-12.47S280.82,220.78,280.24,221.94Z" style="fill:#fff;stroke:#263238;stroke-linecap:round;stroke-linejoin:round"></path><line x1="279.08" y1="226.29" x2="290.39" y2="227.45" style="fill:none;stroke:#263238;stroke-linecap:round;stroke-linejoin:round"></line><line x1="277.92" y1="231.8" x2="288.65" y2="233.54" style="fill:none;stroke:#263238;stroke-linecap:round;stroke-linejoin:round"></line><line x1="276.18" y1="235.86" x2="286.04" y2="238.18" style="fill:none;stroke:#263238;stroke-linecap:round;stroke-linejoin:round"></line><path d="M285.7,217.39a12.78,12.78,0,0,1-1.94-.21c-2.27-.44-7.38-1.18-7.59.89-.27,2.67,0,4.67,1.9,4.67h8.39c2.44,0,3.25-1.67,2.71-3.67C288.8,217.68,286.85,217.42,285.7,217.39Z" style="fill:#fff;stroke:#263238;stroke-linecap:round;stroke-linejoin:round"></path><path d="M240,224.85a54.1,54.1,0,0,0,0,7.48" style="fill:none;stroke:#263238;stroke-miterlimit:10"></path><path d="M271.78,238.54h-8.94a5.46,5.46,0,0,1-5.4-4.67l-2.07-20.13h23.88l-2.06,20.13A5.47,5.47,0,0,1,271.78,238.54Z" style="fill:#fff;stroke:#263238;stroke-linecap:round;stroke-linejoin:round"></path><path d="M267.84,213.29c-.25-1.22-1.55-2.6-2.85-4.34-2.37-3.16,36.29-1.19,41-2.76s-1.18-1.58-2-5.13,9.47.39,19.72-.4,6.71-3.55-6.31-6.31-26.43,1.18-21.69,5.52-2.37,2.77-18.15,2.77-16.57,2.76-18.14,8.28a5.77,5.77,0,0,1-1.36,2.37Z" style="fill:#fff;opacity:0.37"></path></g></svg>
