<svg xmlns="http://www.w3.org/2000/svg" viewBox="0 0 500 500"><g id="freepik--background-complete--inject-15"><path d="M319.32,250.71l-123-1.15L159,249.38l-10.14,0-2.64,0a4.83,4.83,0,0,0-.9.05s.31,0,.9,0l2.64.06,10.13.13,37.29.19,123,.08c48,0,91.51.06,123,.28,15.74.11,28.48.26,37.28.42,4.4.09,7.82.17,10.14.26a19.82,19.82,0,0,1,3.53.26,19.87,19.87,0,0,1-3.53.23c-2.32.06-5.74.11-10.14.15-8.81.08-21.55.1-37.29.05C410.82,251.56,367.34,251.19,319.32,250.71Z" style="fill:#ebebeb"></path><path d="M318.36,261.24,197,241.51l-36.8-5.8-10-1.5-2.61-.36a5,5,0,0,0-.89-.09,5.22,5.22,0,0,0,.87.19l2.6.46,10,1.66L197,241.9l121.53,18.65c47.44,7.24,90.39,13.86,121.45,18.84,15.53,2.49,28.09,4.55,36.76,6.05,4.33.75,7.7,1.35,10,1.79a18.73,18.73,0,0,1,3.45.79,19,19,0,0,1-3.53-.31c-2.3-.28-5.69-.75-10-1.37-8.71-1.25-21.3-3.16-36.84-5.58C408.62,275.92,365.72,269,318.36,261.24Z" style="fill:#ebebeb"></path><path d="M315.72,271.5,199.08,233.44l-35.4-11.36-9.65-3-2.52-.75a7.18,7.18,0,0,0-.87-.23,4.61,4.61,0,0,0,.83.33l2.49.85,9.6,3.17L199,233.82l117,37c45.67,14.41,87,27.52,116.88,37.19,14.93,4.83,27,8.8,35.32,11.6,4.16,1.41,7.38,2.52,9.56,3.3a18.72,18.72,0,0,1,3.27,1.31,19.05,19.05,0,0,1-3.43-.84c-2.23-.63-5.5-1.61-9.7-2.89-8.4-2.57-20.52-6.38-35.47-11.15C402.47,299.81,361.23,286.39,315.72,271.5Z" style="fill:#ebebeb"></path><path d="M311.45,281.22l-109-55.41L169.3,209.17l-9-4.46-2.37-1.13a4.56,4.56,0,0,0-.82-.35,6.88,6.88,0,0,0,.77.44l2.32,1.23,9,4.59,33.11,16.66L311.78,280.6c42.77,21.22,81.47,40.49,109.4,54.61,14,7.05,25.24,12.81,33,16.85,3.88,2,6.88,3.61,8.9,4.71a19,19,0,0,1,3,1.8,18,18,0,0,1-3.26-1.36c-2.09-1-5.16-2.43-9.1-4.34-7.88-3.83-19.23-9.44-33.23-16.44C392.54,322.44,354,302.88,311.45,281.22Z" style="fill:#ebebeb"></path><path d="M305.66,290.17l-98.77-71.3-30-21.46-8.21-5.78-2.16-1.48a4.7,4.7,0,0,0-.75-.47,5.29,5.29,0,0,0,.69.56l2.09,1.56,8.12,5.9,30,21.48,99.44,70.42c38.83,27.46,74,52.37,99.27,70.56,12.66,9.09,22.88,16.49,29.89,21.66,3.51,2.59,6.22,4.61,8,6a18.83,18.83,0,0,1,2.7,2.23,18.17,18.17,0,0,1-3-1.84c-1.91-1.27-4.71-3.18-8.29-5.67-7.17-5-17.48-12.24-30.18-21.28C379.12,343.2,344.19,318,305.66,290.17Z" style="fill:#ebebeb"></path><path d="M298.51,298.13l-86.16-85.36L186.11,187l-7.19-6.95L177,178.29a5.64,5.64,0,0,0-.67-.58,6.13,6.13,0,0,0,.59.66l1.82,1.85,7.08,7.06L212.07,213l87,84.59c34,33,64.67,62.92,86.77,84.71,11.05,10.9,19.95,19.75,26.06,25.92,3.05,3.08,5.4,5.49,7,7.15a18.53,18.53,0,0,1,2.31,2.61,17.66,17.66,0,0,1-2.67-2.27c-1.69-1.55-4.14-3.86-7.28-6.85-6.29-6-15.31-14.74-26.41-25.59C362.59,361.62,332.12,331.47,298.51,298.13Z" style="fill:#ebebeb"></path><path d="M290.18,304.91l-71.45-97.34-21.81-29.4c-2.58-3.43-4.6-6.1-6-7.95l-1.59-2.05a4.84,4.84,0,0,0-.57-.68,6.67,6.67,0,0,0,.48.74l1.5,2.11,5.86,8,21.79,29.41,72.36,96.71c28.27,37.73,53.82,71.93,72.16,96.79,9.17,12.44,16.55,22.53,21.59,29.55,2.52,3.5,4.46,6.24,5.75,8.11a18.24,18.24,0,0,1,1.86,2.93,18.2,18.2,0,0,1-2.27-2.64c-1.42-1.78-3.47-4.44-6.1-7.87-5.25-6.88-12.76-16.87-22-29.27C343.32,377.31,318,342.93,290.18,304.91Z" style="fill:#ebebeb"></path><path d="M280.86,310.35c-21.45-41.78-40.85-79.6-54.91-107-7.09-13.64-12.83-24.68-16.81-32.35-2-3.78-3.56-6.72-4.63-8.76-.54-1-.95-1.72-1.24-2.26a6,6,0,0,0-.45-.76,4.71,4.71,0,0,0,.35.81l1.14,2.31c1.05,2,2.56,5,4.5,8.83l16.78,32.36L281.5,310c21.86,41.56,41.59,79.22,55.71,106.57,7.06,13.67,12.72,24.76,16.57,32.46,1.93,3.85,3.4,6.84,4.38,8.89a17.36,17.36,0,0,1,1.36,3.18,17.85,17.85,0,0,1-1.82-3c-1.11-2-2.72-4.91-4.76-8.7-4.07-7.59-9.89-18.6-17-32.25C321.69,389.94,302.25,352.13,280.86,310.35Z" style="fill:#ebebeb"></path><path d="M270.77,314.3l-36.9-114.07-11.36-34.52c-1.36-4-2.43-7.19-3.16-9.36-.37-1-.65-1.85-.85-2.42a5.17,5.17,0,0,0-.33-.82,5.35,5.35,0,0,0,.22.85q.27.87.75,2.46l3,9.4c2.69,8.19,6.56,20,11.33,34.53l38,113.74c14.86,44.38,28.25,84.59,37.76,113.75,4.76,14.58,8.56,26.4,11.12,34.59,1.28,4.09,2.25,7.28,2.88,9.45a17.38,17.38,0,0,1,.83,3.35,17.18,17.18,0,0,1-1.32-3.2c-.78-2.12-1.89-5.26-3.29-9.32-2.8-8.11-6.76-19.88-11.58-34.45C298.21,399.14,285.14,358.83,270.77,314.3Z" style="fill:#ebebeb"></path><path d="M260.17,316.66c-7-46.2-13.37-88-18-118.3-2.37-15.1-4.29-27.33-5.63-35.82l-1.6-9.73c-.19-1.09-.34-1.92-.45-2.52a5.61,5.61,0,0,0-.19-.86,5.15,5.15,0,0,0,.08.87c.08.61.2,1.45.35,2.54.33,2.27.82,5.54,1.45,9.75,1.32,8.5,3.24,20.72,5.6,35.83,4.89,30.26,11.63,72,19.09,118.13s14.2,87.86,18.87,118.11c2.34,15.13,4.17,27.38,5.37,35.86.6,4.24,1.05,7.54,1.32,9.77a17,17,0,0,1,.28,3.44,17.77,17.77,0,0,1-.78-3.36c-.43-2.22-1-5.49-1.74-9.71-1.45-8.44-3.46-20.67-5.86-35.79C273.54,404.64,267.15,362.83,260.17,316.66Z" style="fill:#ebebeb"></path><path d="M249.32,317.37c.43-46.69.82-88.94,1.11-119.57.06-15.28.12-27.65.15-36.24,0-4.25,0-7.56,0-9.85,0-1.1,0-2,0-2.56a8.17,8.17,0,0,0-.05-.87,4.79,4.79,0,0,0-.06.87c0,.61,0,1.46-.06,2.56,0,2.29-.07,5.6-.12,9.85,0,8.59-.11,21-.18,36.24,0,30.63,0,72.88,0,119.58s0,88.93-.21,119.53c-.1,15.29-.25,27.67-.41,36.23-.08,4.28-.17,7.6-.26,9.85a19,19,0,0,1-.26,3.44,17.16,17.16,0,0,1-.24-3.44c-.06-2.25-.12-5.58-.16-9.85-.09-8.56-.11-20.94-.08-36.24C248.49,406.3,248.85,364,249.32,317.37Z" style="fill:#ebebeb"></path><path d="M238.48,316.45c7.89-46.06,15-87.74,20.22-117.95,2.51-15.09,4.53-27.3,5.94-35.78l1.55-9.73c.16-1.1.28-1.94.37-2.54s.1-.87.09-.87a4.79,4.79,0,0,0-.2.85c-.12.6-.27,1.44-.48,2.52-.39,2.26-1,5.52-1.69,9.72-1.42,8.47-3.46,20.68-6,35.77-4.89,30.25-11.64,72-19.11,118.12S225,404.42,219.88,434.61c-2.55,15.1-4.67,27.3-6.2,35.73-.76,4.21-1.38,7.48-1.83,9.69a17,17,0,0,1-.82,3.36,18.69,18.69,0,0,1,.32-3.44c.29-2.23.76-5.52,1.41-9.76,1.28-8.46,3.23-20.7,5.71-35.8C223.44,404.17,230.55,362.48,238.48,316.45Z" style="fill:#ebebeb"></path><path d="M227.92,313.89,267,200.5c4.92-14.51,8.91-26.26,11.67-34.41l3.1-9.39c.34-1,.59-1.86.78-2.44a6.52,6.52,0,0,0,.23-.85,4.17,4.17,0,0,0-.34.81c-.21.58-.5,1.38-.87,2.42-.76,2.16-1.85,5.3-3.26,9.33l-11.69,34.41c-9.74,29.13-23.17,69.32-38,113.73s-28.26,84.58-38.19,113.62c-5,14.52-9,26.25-11.92,34.33-1.44,4.05-2.58,7.18-3.38,9.29a17.45,17.45,0,0,1-1.35,3.19,16.33,16.33,0,0,1,.86-3.34c.65-2.17,1.65-5.34,3-9.42,2.64-8.17,6.55-19.95,11.45-34.49C198.84,398.21,212.63,358.13,227.92,313.89Z" style="fill:#ebebeb"></path><path d="M217.92,309.74c22.23-41.39,42.36-78.85,57-106L292,171.54l4.58-8.79,1.17-2.3a5.27,5.27,0,0,0,.36-.8,5.38,5.38,0,0,0-.46.75l-1.26,2.26-4.72,8.72-17.12,32.19L218.56,310.06c-21.81,41.59-41.62,79.21-56.12,106.36C155.19,430,149.27,441,145.11,448.51c-2.07,3.77-3.7,6.69-4.84,8.66a17.36,17.36,0,0,1-1.84,2.94,16.75,16.75,0,0,1,1.4-3.16c1-2,2.49-5,4.46-8.85,3.93-7.66,9.7-18.7,16.89-32.31C175.56,388.57,195.66,351.1,217.92,309.74Z" style="fill:#ebebeb"></path><path d="M208.71,304.12l73.29-96c9.31-12.31,16.84-22.29,22.07-29.21,2.56-3.45,4.56-6.13,5.94-8,.65-.91,1.16-1.6,1.52-2.1a4.85,4.85,0,0,0,.48-.73,5.12,5.12,0,0,0-.57.67l-1.6,2-6.07,7.9-22.08,29.19-72.4,96.69c-28.23,37.76-53.84,71.91-72.54,96.53-9.34,12.31-17,22.24-22.27,29.06-2.66,3.41-4.74,6.05-6.17,7.82a18.07,18.07,0,0,1-2.3,2.62,18.1,18.1,0,0,1,1.89-2.92c1.31-1.86,3.27-4.57,5.83-8.06,5.11-7,12.59-17,21.88-29.34C154.19,375.55,180.07,341.59,208.71,304.12Z" style="fill:#ebebeb"></path><path d="M200.51,297.18l87.77-83.79c11.17-10.76,20.2-19.48,26.48-25.52l7.14-7,1.84-1.84a6.44,6.44,0,0,0,.6-.65,4,4,0,0,0-.68.57l-1.91,1.77-7.25,6.88L288,213.11l-87,84.57c-33.92,33-64.69,62.9-87.1,84.39-11.2,10.74-20.31,19.4-26.65,25.34-3.17,3-5.65,5.25-7.35,6.79a18.76,18.76,0,0,1-2.69,2.24,18.13,18.13,0,0,1,2.33-2.59c1.59-1.64,4-4,7-7.09,6.17-6.11,15.15-14.88,26.31-25.67C135.23,359.5,166.23,329.86,200.51,297.18Z" style="fill:#ebebeb"></path><path d="M193.52,289.08l100.12-69.5,30.24-21.21,8.17-5.82,2.11-1.54a4.86,4.86,0,0,0,.7-.56,7.2,7.2,0,0,0-.76.47l-2.17,1.46-8.27,5.7-30.25,21.19L194,289.66c-38.8,27.5-74,52.35-99.55,70.19-12.78,8.92-23.17,16.1-30.38,21-3.61,2.45-6.42,4.34-8.35,5.6a18.76,18.76,0,0,1-3,1.81,17.8,17.8,0,0,1,2.72-2.21c1.83-1.38,4.56-3.38,8.09-5.93,7.07-5.11,17.35-12.42,30.1-21.39C119.06,340.77,154.43,316.18,193.52,289.08Z" style="fill:#ebebeb"></path><path d="M187.92,280,298,226.59l33.28-16.35,9-4.51,2.33-1.2a6.88,6.88,0,0,0,.77-.44,5.87,5.87,0,0,0-.82.34l-2.38,1.11-9.08,4.38-33.29,16.33L188.25,280.66c-42.74,21.27-81.48,40.47-109.61,54.2C64.58,341.73,53.17,347.24,45.25,351c-4,1.87-7,3.31-9.14,4.26a20.37,20.37,0,0,1-3.27,1.33,17.23,17.23,0,0,1,3-1.77c2-1.09,5-2.65,8.95-4.63,7.8-4,19.13-9.63,33.17-16.56C106.06,319.77,145,300.85,187.92,280Z" style="fill:#ebebeb"></path><path d="M183.85,270.23,301.2,234.29l35.51-11.06,9.63-3.08,2.49-.83a4.63,4.63,0,0,0,.84-.32,8.07,8.07,0,0,0-.87.22l-2.53.73-9.68,2.93-35.51,11-117,37c-45.66,14.47-87,27.51-117,36.77-15,4.64-27.15,8.33-35.58,10.82-4.21,1.25-7.49,2.19-9.72,2.81a19.21,19.21,0,0,1-3.44.81,18.44,18.44,0,0,1,3.29-1.28c2.18-.76,5.41-1.84,9.58-3.21,8.35-2.72,20.46-6.58,35.44-11.27C96.58,297,138,284.22,183.85,270.23Z" style="fill:#ebebeb"></path><path d="M181.42,259.93l121.71-17.55L340,236.89l10-1.57,2.6-.44a5.43,5.43,0,0,0,.88-.18,5.51,5.51,0,0,0-.9.08l-2.61.33-10,1.42L303.07,242,181.53,260.62C134.1,267.93,91.14,274.48,60,279c-15.57,2.28-28.17,4.07-36.9,5.24-4.36.59-7.75,1-10,1.29a18.28,18.28,0,0,1-3.53.27,19.41,19.41,0,0,1,3.45-.76c2.28-.41,5.65-1,10-1.69C31.67,282,44.25,280,59.8,277.67,90.91,273,133.92,266.74,181.42,259.93Z" style="fill:#ebebeb"></path><path d="M180.68,249.38l123,1,37.29.13,10.13,0,2.64,0a4.83,4.83,0,0,0,.9-.05,4.83,4.83,0,0,0-.9,0l-2.64-.06L341,250.17,303.71,250l-123,.08c-48,.06-91.51,0-123-.14-15.74-.09-28.48-.22-37.28-.37-4.4-.08-7.82-.16-10.14-.25a19.39,19.39,0,0,1-3.53-.25,17.58,17.58,0,0,1,3.53-.23c2.32-.07,5.74-.13,10.14-.17,8.81-.09,21.55-.12,37.29-.09C89.18,248.64,132.66,249,180.68,249.38Z" style="fill:#ebebeb"></path><path d="M181.62,238.84,303,258.42l36.81,5.76,10,1.49,2.61.36a5.44,5.44,0,0,0,.9.08,8.33,8.33,0,0,0-.88-.19l-2.6-.46-10-1.64L303.06,258l-121.55-18.5C134.06,232.36,91.1,225.79,60,220.85c-15.53-2.47-28.09-4.52-36.76-6-4.34-.74-7.7-1.34-10-1.77a20.18,20.18,0,0,1-3.45-.79,18.21,18.21,0,0,1,3.53.3c2.3.28,5.69.74,10,1.36,8.72,1.24,21.31,3.13,36.85,5.54C91.35,224.28,134.26,231.17,181.62,238.84Z" style="fill:#ebebeb"></path><path d="M184.25,228.58,300.94,266.5l35.42,11.31,9.66,3,2.52.75a4.35,4.35,0,0,0,.87.22s-.28-.12-.84-.32l-2.49-.85-9.6-3.16-35.41-11.34L184,229.25c-45.7-14.35-87-27.41-116.93-37-14.94-4.82-27-8.77-35.34-11.56-4.16-1.4-7.39-2.51-9.56-3.28a18.66,18.66,0,0,1-3.28-1.31,17.32,17.32,0,0,1,3.44.83c2.22.63,5.49,1.6,9.7,2.88,8.4,2.56,20.53,6.35,35.49,11.11C97.47,200.38,138.72,213.75,184.25,228.58Z" style="fill:#ebebeb"></path><path d="M188.51,218.86l109.1,55.28,33.15,16.59,9,4.45,2.37,1.13a4.56,4.56,0,0,0,.82.35,4.67,4.67,0,0,0-.77-.45L339.9,295l-9-4.58-33.14-16.62L188.18,219.48c-42.8-21.17-81.52-40.39-109.47-54.48-14-7-25.26-12.78-33-16.81-3.88-2-6.89-3.6-8.91-4.7a19.55,19.55,0,0,1-3-1.79A18.33,18.33,0,0,1,37,143.05c2.1,1,5.17,2.43,9.11,4.34,7.88,3.81,19.24,9.41,33.25,16.39C107.37,177.74,146,197.25,188.51,218.86Z" style="fill:#ebebeb"></path><path d="M194.29,209.9l98.86,71.18,30.07,21.42,8.22,5.77,2.16,1.48a5.92,5.92,0,0,0,.75.47,6.43,6.43,0,0,0-.69-.56l-2.09-1.56-8.13-5.88-30.05-21.45-99.53-70.3c-38.87-27.41-74-52.28-99.37-70.44C81.82,131,71.6,123.57,64.58,118.41c-3.51-2.58-6.23-4.61-8-6a18.83,18.83,0,0,1-2.7-2.23,18.44,18.44,0,0,1,3,1.83c1.92,1.27,4.71,3.18,8.3,5.66,7.17,5,17.49,12.22,30.2,21.25C120.76,157,155.72,182.09,194.29,209.9Z" style="fill:#ebebeb"></path><path d="M201.43,201.93l86.27,85.26L314,312.9l7.2,6.94,1.89,1.78a4.61,4.61,0,0,0,.67.58,4.47,4.47,0,0,0-.59-.65c-.43-.45-1-1.06-1.82-1.86l-7.09-7L288,286.92l-87.07-84.49c-34-33-64.75-62.84-86.88-84.6C103,107,94.05,98.1,87.94,91.94c-3.06-3.08-5.41-5.49-7-7.14a17.71,17.71,0,0,1-2.31-2.61,18.29,18.29,0,0,1,2.67,2.27C83,86,85.46,88.31,88.6,91.3c6.29,6,15.33,14.72,26.44,25.56C137.26,138.52,167.78,168.63,201.43,201.93Z" style="fill:#ebebeb"></path><path d="M209.75,195.14c27.95,38,53.25,72.34,71.58,97.26l21.84,29.37,6,7.94,1.58,2.05a5.12,5.12,0,0,0,.57.67,4.21,4.21,0,0,0-.48-.74c-.35-.5-.85-1.19-1.5-2.1l-5.87-8-21.82-29.39-72.49-96.62c-28.32-37.69-53.91-71.86-72.28-96.7-9.19-12.42-16.58-22.51-21.63-29.52-2.53-3.5-4.47-6.24-5.76-8.11a17.47,17.47,0,0,1-1.87-2.93,18.55,18.55,0,0,1,2.28,2.64c1.42,1.79,3.48,4.44,6.1,7.87,5.26,6.86,12.79,16.85,22,29.24C156.52,122.8,181.85,157.16,209.75,195.14Z" style="fill:#ebebeb"></path><path d="M219.07,189.69c21.49,41.76,40.95,79.55,55.05,106.94L291,329l4.65,8.75,1.24,2.27a6.25,6.25,0,0,0,.45.75,4.49,4.49,0,0,0-.35-.8c-.28-.55-.65-1.32-1.15-2.31l-4.5-8.83-16.83-32.34L218.42,190c-21.91-41.53-41.69-79.17-55.84-106.5C155.5,69.85,149.82,58.76,146,51.07c-1.93-3.84-3.41-6.84-4.38-8.89A16.87,16.87,0,0,1,140.21,39,18.88,18.88,0,0,1,142,42c1.11,2,2.72,4.91,4.77,8.7,4.09,7.58,9.91,18.59,17,32.22C178.13,110.15,197.61,147.93,219.07,189.69Z" style="fill:#ebebeb"></path><path d="M229.15,185.73c14.46,44.52,27.56,84.82,37,114l11.4,34.5c1.37,4.05,2.44,7.19,3.17,9.36.37,1.05.66,1.85.86,2.43a4.73,4.73,0,0,0,.33.81,5.68,5.68,0,0,0-.22-.85l-.76-2.45c-.7-2.18-1.72-5.34-3-9.41l-11.38-34.51c-9.76-29.12-23.24-69.29-38.13-113.69s-28.35-84.55-37.9-113.71c-4.78-14.57-8.59-26.39-11.16-34.57-1.29-4.09-2.26-7.28-2.89-9.45a16.18,16.18,0,0,1-.84-3.35,18.1,18.1,0,0,1,1.32,3.2c.78,2.12,1.9,5.26,3.3,9.32,2.81,8.11,6.79,19.87,11.63,34.43C201.59,100.92,214.72,141.21,229.15,185.73Z" style="fill:#ebebeb"></path><path d="M239.74,183.36c7.08,46.18,13.49,88,18.13,118.27,2.4,15.1,4.34,27.33,5.68,35.81.7,4.21,1.24,7.47,1.62,9.73.19,1.09.34,1.93.45,2.53a5.63,5.63,0,0,0,.19.85,5.15,5.15,0,0,0-.08-.87c-.08-.6-.2-1.45-.35-2.54-.34-2.26-.83-5.54-1.46-9.75-1.34-8.49-3.27-20.72-5.65-35.82-4.93-30.25-11.73-72-19.24-118.11S224.71,95.63,220,65.37c-2.36-15.12-4.21-27.37-5.42-35.85-.61-4.24-1.05-7.53-1.33-9.77a17,17,0,0,1-.28-3.43,18.51,18.51,0,0,1,.78,3.36c.43,2.21,1,5.49,1.76,9.7,1.46,8.44,3.48,20.67,5.9,35.78C226.26,95.39,232.7,137.19,239.74,183.36Z" style="fill:#ebebeb"></path><path d="M250.59,182.63c-.37,46.69-.71,88.94-1,119.57,0,15.28-.08,27.65-.11,36.24,0,4.25,0,7.56,0,9.85,0,1.1,0,1.95,0,2.56a8.56,8.56,0,0,0,0,.88,5,5,0,0,0,.06-.88c0-.61,0-1.45.06-2.56,0-2.28.06-5.6.11-9.85,0-8.59.07-21,.13-36.24,0-30.63-.09-72.88-.15-119.58s-.11-88.93.06-119.52c.08-15.3.21-27.68.36-36.24.08-4.28.16-7.6.25-9.85a16.9,16.9,0,0,1,.26-3.44A19.33,19.33,0,0,1,251,17c.07,2.25.13,5.58.17,9.85.1,8.56.14,20.94.12,36.24C251.3,93.7,251,136,250.59,182.63Z" style="fill:#ebebeb"></path><path d="M261.44,183.54c-7.84,46.07-14.93,87.76-20.07,118-2.49,15.09-4.5,27.3-5.9,35.79-.66,4.2-1.17,7.48-1.53,9.74-.16,1.09-.28,1.93-.36,2.53a4.8,4.8,0,0,0-.09.87,5.35,5.35,0,0,0,.2-.85c.11-.6.26-1.44.46-2.52.4-2.26,1-5.52,1.69-9.72,1.4-8.48,3.43-20.69,5.93-35.77,4.85-30.27,11.55-72,19-118.15s14.09-87.88,19.16-118.07C282.4,50.26,284.51,38,286,29.62c.76-4.22,1.37-7.49,1.82-9.7a17.33,17.33,0,0,1,.81-3.35,16.93,16.93,0,0,1-.31,3.43c-.29,2.24-.76,5.53-1.4,9.76-1.27,8.47-3.2,20.71-5.67,35.82C276.36,95.79,269.31,137.5,261.44,183.54Z" style="fill:#ebebeb"></path><path d="M272,186.09c-15.21,44.29-29,84.38-38.94,113.43-4.9,14.52-8.86,26.27-11.62,34.43l-3.09,9.39c-.33,1.05-.59,1.86-.77,2.45a6.71,6.71,0,0,0-.23.84,4.17,4.17,0,0,0,.34-.81c.21-.57.49-1.38.87-2.42l3.24-9.33,11.65-34.43c9.7-29.14,23.07-69.34,37.86-113.77s28.15-84.62,38-113.67c4.94-14.52,9-26.26,11.87-34.35,1.43-4.05,2.57-7.18,3.37-9.3a18.07,18.07,0,0,1,1.34-3.18,17,17,0,0,1-.85,3.34c-.65,2.16-1.65,5.34-3,9.43-2.63,8.16-6.52,20-11.4,34.5C301,101.73,287.23,141.83,272,186.09Z" style="fill:#ebebeb"></path><path d="M282,190.22c-22.19,41.42-42.26,78.9-56.81,106.07-7.19,13.59-13,24.59-17.06,32.22l-4.57,8.8-1.16,2.3a5.27,5.27,0,0,0-.36.8,5.38,5.38,0,0,0,.46-.75l1.25-2.26c1.1-2,2.68-4.95,4.71-8.72l17.08-32.22L281.37,189.9c21.75-41.61,41.5-79.26,56-106.43,7.23-13.59,13.13-24.56,17.28-32.11,2.07-3.78,3.69-6.7,4.83-8.67a17.94,17.94,0,0,1,1.84-2.94,18.9,18.9,0,0,1-1.4,3.17c-1,2-2.49,5-4.45,8.85-3.92,7.67-9.67,18.71-16.85,32.33C324.26,111.33,304.21,148.84,282,190.22Z" style="fill:#ebebeb"></path><path d="M291.22,195.83,218.05,292,196,321.2c-2.56,3.45-4.56,6.13-5.93,8l-1.52,2.09a6.14,6.14,0,0,0-.49.74,5.48,5.48,0,0,0,.58-.67l1.6-2,6-7.9,22.05-29.22,72.27-96.78c28.18-37.79,53.75-72,72.41-96.62,9.33-12.32,16.93-22.25,22.23-29.08,2.66-3.42,4.73-6.06,6.17-7.83a18.29,18.29,0,0,1,2.29-2.63,17.33,17.33,0,0,1-1.88,2.92c-1.31,1.86-3.27,4.58-5.82,8.07-5.11,7-12.57,17-21.84,29.37C345.65,124.33,319.81,158.33,291.22,195.83Z" style="fill:#ebebeb"></path><path d="M299.43,202.76l-87.67,83.9c-11.14,10.78-20.17,19.5-26.43,25.55l-7.14,7-1.83,1.84a4.11,4.11,0,0,0-.6.66,7.23,7.23,0,0,0,.67-.58l1.91-1.77,7.24-6.89c6.28-6.05,15.31-14.77,26.46-25.54l86.88-84.67c33.88-33.07,64.61-63,87-84.49C397.1,107,406.19,98.34,412.53,92.39c3.16-3,5.64-5.26,7.34-6.79a18.21,18.21,0,0,1,2.68-2.25,17.34,17.34,0,0,1-2.33,2.59c-1.58,1.65-4,4-7,7.1-6.15,6.11-15.13,14.9-26.27,25.7C364.63,140.36,333.67,170,299.43,202.76Z" style="fill:#ebebeb"></path><path d="M306.43,210.85l-100,69.63-30.21,21.24L168,307.56l-2.1,1.54a6.84,6.84,0,0,0-.7.55,4.45,4.45,0,0,0,.76-.47l2.17-1.46,8.26-5.71,30.22-21.22L306,210.28c38.76-27.55,73.9-52.45,99.45-70.32,12.78-8.94,23.15-16.12,30.36-21,3.6-2.46,6.42-4.35,8.34-5.6a18.48,18.48,0,0,1,3-1.82,18,18,0,0,1-2.71,2.21c-1.84,1.38-4.56,3.39-8.09,6-7.06,5.11-17.34,12.43-30.07,21.42C380.82,159.06,345.49,183.7,306.43,210.85Z" style="fill:#ebebeb"></path><path d="M312,219.9,202,273.47l-33.25,16.39-9,4.53-2.33,1.2a4.33,4.33,0,0,0-.77.44,4.88,4.88,0,0,0,.82-.34l2.38-1.12,9.08-4.38,33.26-16.37,109.49-54.55c42.72-21.32,81.43-40.57,109.54-54.34,14.06-6.89,25.46-12.41,33.37-16.17,3.95-1.88,7-3.32,9.14-4.27a18.31,18.31,0,0,1,3.26-1.33,19.09,19.09,0,0,1-3,1.77c-2,1.09-5.05,2.65-8.95,4.64-7.8,4-19.12,9.65-33.14,16.59C393.85,180.06,355,199,312,219.9Z" style="fill:#ebebeb"></path><path d="M316.12,229.69l-117.3,36.08-35.49,11.11L153.7,280l-2.49.83a5.85,5.85,0,0,0-.84.32,4.66,4.66,0,0,0,.87-.21l2.53-.74,9.67-2.94,35.5-11.08L315.9,229c45.63-14.53,87-27.62,117-36.92,15-4.65,27.15-8.36,35.57-10.86,4.21-1.26,7.49-2.21,9.72-2.82a18.64,18.64,0,0,1,3.44-.82,18.28,18.28,0,0,1-3.29,1.29c-2.18.76-5.41,1.85-9.58,3.22-8.35,2.73-20.45,6.6-35.42,11.32C403.36,202.86,361.91,215.64,316.12,229.69Z" style="fill:#ebebeb"></path><path d="M318.56,240l-121.68,17.7L160,263.23l-10,1.58-2.6.44a5.43,5.43,0,0,0-.88.18,5.44,5.44,0,0,0,.9-.08l2.61-.34,10-1.43,36.85-5.51,121.51-18.78c47.42-7.36,90.37-14,121.5-18.56,15.56-2.31,28.16-4.11,36.88-5.3,4.36-.59,7.75-1,10.05-1.29a18,18,0,0,1,3.54-.28,18.9,18.9,0,0,1-3.46.76c-2.28.42-5.64,1-10,1.71-8.68,1.43-21.25,3.4-36.81,5.77C409.06,226.83,366.06,233.12,318.56,240Z" style="fill:#ebebeb"></path><path d="M68.34,406.93a25.55,25.55,0,0,0-3-6.22A8.56,8.56,0,0,0,59.68,397a5.25,5.25,0,0,0-5.58,3.15c-.33-4.93-1-10-3.5-14.27s-7.07-7.64-12-7.34c-4.65.28-8.63,3.74-10.84,7.84s-3,8.8-3.7,13.4c-1.76-2.16-5.48-1.48-7.32.61s-2.3,5-2.69,7.79H69.49Z" style="fill:#fafafa"></path><path d="M453.54,190.74a40.84,40.84,0,0,0-4.76-9.89c-2.17-3-5.33-5.39-9-5.84s-7.68,1.53-8.86,5c-.53-7.83-1.64-15.86-5.55-22.65s-11.23-12.14-19.06-11.66c-7.38.45-13.7,5.94-17.22,12.45s-4.71,14-5.87,21.28c-2.79-3.44-8.7-2.36-11.62,1s-3.66,8-4.29,12.37h88.05Z" style="fill:#ebebeb"></path><path d="M125.14,374.55a36,36,0,0,0-4.24-8.78,12.09,12.09,0,0,0-8-5.19c-3.24-.4-6.83,1.35-7.88,4.44-.47-7-1.45-14.09-4.94-20.13s-10-10.79-16.93-10.36c-6.56.4-12.18,5.27-15.3,11.06S63.68,358,62.66,364.5c-2.49-3.05-7.74-2.09-10.33.87s-3.26,7.1-3.81,11h78.25Z" style="fill:#ebebeb"></path><path d="M384.07,98.05a35.94,35.94,0,0,0-4.23-8.78,12.1,12.1,0,0,0-8-5.19c-3.24-.4-6.82,1.35-7.88,4.44-.46-7-1.45-14.1-4.93-20.14S349.07,57.6,342.11,58c-6.56.41-12.18,5.28-15.3,11.06S322.62,81.51,321.59,88c-2.48-3-7.73-2.09-10.33.87s-3.25,7.09-3.81,11H385.7Z" style="fill:#ebebeb"></path><path d="M424.6,447a36.34,36.34,0,0,0-4.24-8.78,12.08,12.08,0,0,0-8-5.19c-3.23-.4-6.82,1.35-7.88,4.44-.46-7-1.45-14.1-4.93-20.14s-10-10.78-16.94-10.36c-6.56.41-12.17,5.28-15.3,11.06s-4.19,12.42-5.21,18.92c-2.49-3.05-7.74-2.09-10.34.87s-3.25,7.09-3.8,11h78.25Z" style="fill:#ebebeb"></path><path d="M121,267.31a22.9,22.9,0,0,0-2.71-5.61,7.73,7.73,0,0,0-5.09-3.31,4.71,4.71,0,0,0-5,2.83c-.3-4.44-.92-9-3.15-12.85s-6.37-6.89-10.81-6.61c-4.19.25-7.78,3.36-9.77,7.06s-2.67,7.93-3.33,12.07c-1.59-1.95-4.94-1.34-6.6.55s-2.07,4.54-2.43,7h50Z" style="fill:#f5f5f5"></path><path d="M484.08,250.36a22.9,22.9,0,0,0-2.71-5.61,7.73,7.73,0,0,0-5.09-3.31,4.73,4.73,0,0,0-5,2.83c-.3-4.44-.93-9-3.15-12.85s-6.37-6.88-10.81-6.61c-4.19.25-7.78,3.37-9.77,7.06s-2.68,7.93-3.33,12.07c-1.59-1.95-4.94-1.33-6.6.56s-2.07,4.53-2.43,7h50Z" style="fill:#f5f5f5"></path><path d="M266.15,241.9a23.07,23.07,0,0,0-2.71-5.61,7.73,7.73,0,0,0-5.09-3.31,4.72,4.72,0,0,0-5,2.84c-.3-4.45-.92-9-3.15-12.86s-6.37-6.88-10.81-6.61c-4.19.26-7.78,3.37-9.77,7.06s-2.68,7.93-3.33,12.07c-1.59-1.94-4.94-1.33-6.6.56s-2.07,4.53-2.43,7h50Z" style="fill:#f5f5f5"></path><path d="M124.21,91.06a22.9,22.9,0,0,0-2.71-5.61,7.73,7.73,0,0,0-5.09-3.31,4.73,4.73,0,0,0-5,2.83c-.3-4.44-.93-9-3.15-12.85s-6.37-6.88-10.81-6.61c-4.19.25-7.78,3.37-9.77,7.06S85,80.5,84.32,84.64c-1.59-1.94-4.94-1.33-6.6.56s-2.08,4.53-2.43,7h50Z" style="fill:#f5f5f5"></path><path d="M189.59,222l4.62,1.73-4,1.14a4.17,4.17,0,0,0-2.83,2.72L185.91,232l-1.78-4.45a4.17,4.17,0,0,0-2.46-2.37l-4.06-1.48,4.4-1.8a4.25,4.25,0,0,0,2.32-2.37l1.58-4.13,1.14,3.84A4.24,4.24,0,0,0,189.59,222Z" style="fill:#ebebeb"></path><path d="M84.39,266.73,89,268.46l-4,1.14a4.18,4.18,0,0,0-2.84,2.73l-1.45,4.43-1.79-4.45a4.15,4.15,0,0,0-2.45-2.37l-4.06-1.48,4.4-1.8a4.2,4.2,0,0,0,2.31-2.37l1.59-4.13L81.85,264A4.17,4.17,0,0,0,84.39,266.73Z" style="fill:#ebebeb"></path><path d="M112.82,438.83l4.62,1.74-4,1.14a4.2,4.2,0,0,0-2.84,2.72l-1.45,4.44-1.78-4.45A4.21,4.21,0,0,0,104.9,442l-4.06-1.47,4.4-1.81a4.16,4.16,0,0,0,2.31-2.36l1.59-4.13,1.14,3.84A4.17,4.17,0,0,0,112.82,438.83Z" style="fill:#ebebeb"></path><path d="M377,370l4.27,1.61-3.7,1.05a3.86,3.86,0,0,0-2.62,2.51l-1.34,4.1L372,375.14a3.84,3.84,0,0,0-2.26-2.19L366,371.59l4.06-1.67a3.84,3.84,0,0,0,2.13-2.18l1.47-3.81,1.05,3.54A3.85,3.85,0,0,0,377,370Z" style="fill:#ebebeb"></path><path d="M263.67,45.81l4.27,1.6-3.71,1.05A3.86,3.86,0,0,0,261.62,51l-1.34,4.1L258.63,51a3.86,3.86,0,0,0-2.27-2.19l-3.74-1.36,4.06-1.67a3.84,3.84,0,0,0,2.13-2.18l1.47-3.81,1.05,3.54A3.87,3.87,0,0,0,263.67,45.81Z" style="fill:#ebebeb"></path><path d="M459.66,235.5l7,2.65-6.12,1.74a6.39,6.39,0,0,0-4.32,4.15l-2.22,6.77L451.33,244a6.41,6.41,0,0,0-3.74-3.62l-6.19-2.25,6.7-2.75a6.39,6.39,0,0,0,3.53-3.61l2.42-6.29,1.74,5.85A6.38,6.38,0,0,0,459.66,235.5Z" style="fill:#ebebeb"></path><path d="M422.37,368.94l7.05,2.65-6.12,1.73a6.39,6.39,0,0,0-4.32,4.16l-2.22,6.76L414,377.46a6.38,6.38,0,0,0-3.74-3.63l-6.19-2.24,6.7-2.76a6.39,6.39,0,0,0,3.53-3.61l2.42-6.29,1.74,5.85A6.39,6.39,0,0,0,422.37,368.94Z" style="fill:#ebebeb"></path><path d="M285.82,76.2l7.05,2.65-6.12,1.74a6.39,6.39,0,0,0-4.32,4.15l-2.22,6.77-2.72-6.79a6.39,6.39,0,0,0-3.74-3.62l-6.19-2.25,6.7-2.75a6.36,6.36,0,0,0,3.53-3.61l2.42-6.29L282,72.05A6.38,6.38,0,0,0,285.82,76.2Z" style="fill:#ebebeb"></path><path d="M260.63,238.12l9.61,3.61-8.34,2.37a8.68,8.68,0,0,0-5.89,5.66L253,259l-3.71-9.25a8.69,8.69,0,0,0-5.11-4.93l-8.43-3.07,9.14-3.75a8.71,8.71,0,0,0,4.81-4.92l3.3-8.58,2.37,8A8.67,8.67,0,0,0,260.63,238.12Z" style="fill:#ebebeb"></path><path d="M101.72,71.71l9.6,3.61L103,77.68a8.7,8.7,0,0,0-5.89,5.66l-3,9.23-3.71-9.25a8.69,8.69,0,0,0-5.1-4.94l-8.44-3.06L86,71.56a8.68,8.68,0,0,0,4.81-4.92l3.3-8.57,2.37,8A8.72,8.72,0,0,0,101.72,71.71Z" style="fill:#ebebeb"></path><path d="M82.56,407.93l9.61,3.62-8.34,2.36a8.68,8.68,0,0,0-5.89,5.66l-3,9.23-3.71-9.25a8.68,8.68,0,0,0-5.11-4.94l-8.43-3.06,9.14-3.76a8.71,8.71,0,0,0,4.81-4.92l3.3-8.57,2.37,8A8.65,8.65,0,0,0,82.56,407.93Z" style="fill:#ebebeb"></path></g><g id="freepik--graduation-hat-3--inject-15"><path d="M425.33,296.22a16.56,16.56,0,0,0-9.06-6.89,14.64,14.64,0,0,1-5.07,12.39,31.33,31.33,0,0,0-.06-10.18,3.77,3.77,0,0,0-1-2.35,3.85,3.85,0,0,0-2.68-.6,54.85,54.85,0,0,0-11.41,1.6,17.92,17.92,0,0,1-2.27,16.51c-2.44,3.35-6,5.72-8.95,8.59s-5.59,6.69-5.25,10.82l1.36,4.18c9.3.57,18.51-3.08,26-8.7s13.27-13.08,18.4-20.86a4.6,4.6,0,0,0,.9-2A4,4,0,0,0,425.33,296.22Z" style="fill:#E3B9B9"></path><path d="M377.75,327.56c.21.28-.54,1.29-2.11,2.53a24.56,24.56,0,0,1-14.53,5c-2,0-3.22-.37-3.22-.71,0-.76,4.69-1.21,10-3.07S377.28,327,377.75,327.56Z" style="fill:#E3B9B9"></path><path d="M381,329.64a5.34,5.34,0,1,1-4.5-6.06A5.34,5.34,0,0,1,381,329.64Z" style="fill:#E3B9B9"></path><path d="M381,329.64c-.06,0,0-.47-.08-1.3a5.27,5.27,0,0,0-1.52-3.07,5.11,5.11,0,1,0-6.11,8.06,5.17,5.17,0,0,0,4.91,0,5.35,5.35,0,0,0,2.34-2.5c.34-.76.4-1.24.46-1.23a1.17,1.17,0,0,1,0,.35,4.11,4.11,0,0,1-.25,1,5.32,5.32,0,0,1-2.36,2.74,5.51,5.51,0,0,1-7.59-2.23,5.53,5.53,0,0,1,1-6.54,5.54,5.54,0,0,1,7.92.09,5.28,5.28,0,0,1,1.45,3.31,4.09,4.09,0,0,1,0,1A1.15,1.15,0,0,1,381,329.64Z" style="fill:#263238"></path><path d="M391.73,321a29.83,29.83,0,0,1-5.35,3.31,29.29,29.29,0,0,1-5.74,2.59,52.62,52.62,0,0,1,5.49-3.05A55,55,0,0,1,391.73,321Z" style="fill:#263238"></path><path d="M404.87,314.29a4.35,4.35,0,0,1-.63.95,25.37,25.37,0,0,1-2,2.36,35.76,35.76,0,0,1-17.35,10.21,25.82,25.82,0,0,1-3,.59,4.55,4.55,0,0,1-1.13.09c0-.09,1.58-.33,4.06-1A39.49,39.49,0,0,0,402,317.34C403.82,315.51,404.8,314.23,404.87,314.29Z" style="fill:#263238"></path><path d="M386.6,318a43.81,43.81,0,0,1-3.27,4.12,46.43,46.43,0,0,1-3.37,4,19.36,19.36,0,0,1,3-4.37A19.59,19.59,0,0,1,386.6,318Z" style="fill:#263238"></path><path d="M399.08,300.2a14.39,14.39,0,0,0-4.49-6.27,7.3,7.3,0,0,0-3.07-1.73c-2-.44-4,.52-5.83,1.47a9.82,9.82,0,0,1,3.65,16.16c-1.87,1.88-4.43,2.94-6.37,4.74a11.18,11.18,0,0,0-3.24,10.53l18.62-17.39A8.87,8.87,0,0,0,399.08,300.2Z" style="fill:#E3B9B9"></path><polygon points="97.21 326.6 219.52 274.7 385.8 354.04 304.89 378.74 175.33 359.98 97.21 326.6" style="fill:#263238"></polygon><polygon points="97.55 319.89 97.21 326.6 219.52 274.7 221.24 266.22 97.55 319.89" style="fill:#263238"></polygon><polygon points="385.8 354.04 387.29 346.7 221.24 266.22 219.52 274.7 385.8 354.04" style="fill:#263238"></polygon><polygon points="385.8 354.04 387.29 346.7 221.24 266.22 219.52 274.7 385.8 354.04" style="fill:#fff;opacity:0.30000000000000004"></polygon><polygon points="97.21 326.6 219.52 274.7 385.8 354.04 304.89 378.74 175.33 359.98 97.21 326.6" style="opacity:0.4"></polygon><polygon points="150.5 390.32 163.02 328.74 316.77 360 305.88 421.25 150.5 390.32" style="fill:#263238"></polygon><ellipse cx="240.04" cy="343.31" rx="26.48" ry="78.45" transform="translate(-141.76 515.67) rotate(-79.33)" style="fill:#263238"></ellipse><path d="M299.71,336.15l-14.79,65.44,20.8,20.29,11-59.5a18.12,18.12,0,0,0-4.32-15.83A51.89,51.89,0,0,0,299.71,336.15Z" style="fill:#fff;opacity:0.30000000000000004"></path><path d="M150.53,390.33l12.33-60.63c0-.3.06-.6.12-.9,2.7-14.37,39.42-19.52,82-11.5l-8.6,42.26a22.62,22.62,0,0,1-24.73,18c-10.48-1.19-23-2.1-32.2-1.22-26.58,2.53-28.92,14-28.92,14" style="opacity:0.2"></path><path d="M308.4,407.29c-.39,2.09-2.26,12.49-2.42,12.95-4.51,13.08-43.12,4.37-79.34-2.45-36.43-6.86-69.93-14.45-76.35-26.6,0,0,2.56-10.79,2.94-12.81,2.53-13.4,39.63-17.19,82.55-9.11S310.92,393.89,308.4,407.29Z" style="fill:#E3B9B9"></path><path d="M305.92,421.05c-2.52,13.4-39.62,17.4-82.54,9.31s-75.67-25.49-73.15-38.89,39.36-17.71,82.28-9.63S308.44,407.66,305.92,421.05Z" style="fill:#263238"></path><path d="M306.61,421.19a10.3,10.3,0,0,0-.19-3.51c-.5-2.27-2.33-5.3-5.52-8.34-6.42-6.09-17.81-12.38-32.65-17.72a215.23,215.23,0,0,0-24.77-7.25,250.29,250.29,0,0,0-29.21-5,181.76,181.76,0,0,0-32.69-.85,83.53,83.53,0,0,0-17,2.85,32.48,32.48,0,0,0-8,3.48,17.73,17.73,0,0,0-1.8,1.28,14.18,14.18,0,0,0-1.56,1.54,8.59,8.59,0,0,0-2,3.85c-.55,2.91.65,5.86,2.38,8.19a32.22,32.22,0,0,0,6.2,6.2,82.52,82.52,0,0,0,14.8,8.89A181,181,0,0,0,205.32,426a249.7,249.7,0,0,0,29,6,225.09,225.09,0,0,0,25.7,2.39c15.77.52,28.68-1.05,36.9-4.31,4.1-1.63,6.93-3.76,8.22-5.69a10,10,0,0,0,1.46-3.2s-.07.3-.22.88a4.91,4.91,0,0,1-.39,1,7.54,7.54,0,0,1-.76,1.34c-1.28,2-4.13,4.15-8.23,5.82-8.25,3.33-21.19,5-37,4.48a222.9,222.9,0,0,1-25.75-2.32,252.82,252.82,0,0,1-29.08-6,181.94,181.94,0,0,1-30.84-11.14,82.53,82.53,0,0,1-14.9-8.94,32.74,32.74,0,0,1-6.3-6.31,14.4,14.4,0,0,1-2.12-4,9.23,9.23,0,0,1-.35-4.58,9,9,0,0,1,2.09-4.09,12.88,12.88,0,0,1,1.62-1.6,20,20,0,0,1,1.85-1.32,32.9,32.9,0,0,1,8.18-3.54,83.66,83.66,0,0,1,17.13-2.86,181.61,181.61,0,0,1,32.77.88,248.43,248.43,0,0,1,29.26,5,215.38,215.38,0,0,1,24.8,7.32c14.85,5.4,26.25,11.75,32.66,17.93,3.19,3.07,5,6.16,5.48,8.46a7.13,7.13,0,0,1,.22,1.52,5.11,5.11,0,0,1,0,1.12C306.66,420.89,306.61,421.19,306.61,421.19Z" style="fill:#455a64"></path><ellipse cx="228.79" cy="406.26" rx="20.97" ry="74.64" transform="translate(-212.8 555.91) rotate(-79.33)" style="opacity:0.4"></ellipse><path d="M155.44,392.45s12.21,6.3,32.53,9.34,65.75-11.26,65.75-11.26S167.73,368.62,155.44,392.45Z" style="opacity:0.2"></path></g><g id="freepik--graduation-hat-2--inject-15"><path d="M243.5,170.55a14,14,0,0,1,7.59-6A12.45,12.45,0,0,0,255.62,175a26.84,26.84,0,0,1-.12-8.67,3.21,3.21,0,0,1,.84-2,3.29,3.29,0,0,1,2.27-.56,46.39,46.39,0,0,1,9.75,1.16,15.26,15.26,0,0,0,2.22,14c2.14,2.81,5.18,4.77,7.78,7.16s4.87,5.59,4.66,9.12l-1.09,3.58c-7.91.65-15.82-2.3-22.25-6.95s-11.53-10.9-16-17.43a4,4,0,0,1-.8-1.71A3.43,3.43,0,0,1,243.5,170.55Z" style="fill:#E3B9B9"></path><path d="M284.56,196.4c.45-.59,3.92,1.38,8.49,2.8s8.52,1.86,8.54,2.61c0,.35-1,.71-2.74.8a19.13,19.13,0,0,1-6.59-.93,19.33,19.33,0,0,1-5.92-3C285,197.57,284.36,196.68,284.56,196.4Z" style="fill:#E3B9B9"></path><path d="M281.81,198.23a4.54,4.54,0,1,0,3.72-5.24A4.54,4.54,0,0,0,281.81,198.23Z" style="fill:#E3B9B9"></path><path d="M281.81,198.23s-.05-.09-.09-.28a3.69,3.69,0,0,1-.06-.84,4.55,4.55,0,0,1,1.18-2.87,4.71,4.71,0,0,1,4.3-1.47,4.76,4.76,0,0,1,1.51,8.86,4.73,4.73,0,0,1-4.55,0,4.57,4.57,0,0,1-2.06-2.32,3.44,3.44,0,0,1-.22-.81c0-.19,0-.29,0-.3s.11.39.42,1a4.49,4.49,0,0,0,2,2.07,4.32,4.32,0,1,0-1.16-6.83,4.55,4.55,0,0,0-1.25,2.62C281.79,197.83,281.86,198.23,281.81,198.23Z" style="fill:#263238"></path><path d="M272.54,191a35.77,35.77,0,0,1,4.83,2.29,36.56,36.56,0,0,1,4.72,2.54,37.2,37.2,0,0,1-9.55-4.83Z" style="fill:#263238"></path><path d="M261.23,185.58c.08-.05.94,1,2.53,2.53a33.93,33.93,0,0,0,14.79,8.3c2.13.56,3.48.75,3.47.84a3.68,3.68,0,0,1-1,0,23,23,0,0,1-2.6-.44,30.08,30.08,0,0,1-15-8.4,20.4,20.4,0,0,1-1.73-2A3.71,3.71,0,0,1,261.23,185.58Z" style="fill:#263238"></path><path d="M276.86,188.38a14.7,14.7,0,0,1,3.22,3.13,15,15,0,0,1,2.58,3.69,27.88,27.88,0,0,1-3-3.35A27.77,27.77,0,0,1,276.86,188.38Z" style="fill:#263238"></path><path d="M265.92,173.48a12.2,12.2,0,0,1,3.71-5.42,6.31,6.31,0,0,1,2.58-1.53c1.7-.41,3.43.38,5,1.15a8.37,8.37,0,0,0-2.82,13.83c1.63,1.56,3.82,2.42,5.51,3.92a9.52,9.52,0,0,1,2.94,8.91l-16.16-14.47A7.58,7.58,0,0,1,265.92,173.48Z" style="fill:#E3B9B9"></path><polygon points="366.79 221.01 273.51 223.87 397.11 118.21 482.96 124.37 366.79 221.01 366.79 221.01" style="fill:#263238"></polygon><path d="M394.16,112c-1.11.7-123.62,106.67-123.58,107.22s2.93,4.61,2.93,4.61L483,124.37l-1.41-4.82Z" style="fill:#263238"></path><polygon points="366.79 221.01 273.51 223.87 397.11 118.21 482.96 124.37 366.79 221.01 366.79 221.01" style="opacity:0.4"></polygon><polygon points="397.11 118.21 394.16 112.04 481.55 119.55 482.96 124.37 397.11 118.21" style="fill:#263238"></polygon><polygon points="397.11 118.21 394.16 112.04 481.55 119.55 482.96 124.37 397.11 118.21" style="fill:#fff;opacity:0.30000000000000004"></polygon><polygon points="355.01 253.62 328.66 209.85 437.93 144.04 465.08 186.72 355.01 253.62" style="fill:#263238"></polygon><ellipse cx="382.8" cy="176.23" rx="63.78" ry="21.52" transform="translate(-35.33 228.79) rotate(-31.88)" style="fill:#263238"></ellipse><path d="M414.6,139.14l27.12,47.32,23.61.73-26.14-41.67a14.7,14.7,0,0,0-11.29-7.11A42.34,42.34,0,0,0,414.6,139.14Z" style="fill:#fff;opacity:0.30000000000000004"></path><path d="M355,253.6l-26-43.08c-.15-.2-.3-.4-.43-.61-6.28-10.09,12.88-33.36,42.79-52l18.09,30a18.4,18.4,0,0,1-4.93,24.36c-6.94,5-14.9,11.36-20,17C350.12,245.44,355,253.6,355,253.6" style="opacity:0.2"></path><path d="M460.46,179.43c.83,1.34,5,7.91,5.14,8.24,3.93,9.43-23.91,25.54-49.35,41.38S366.48,259,356.4,255.9c0,0-4.32-7.18-5.12-8.47-5.3-8.53,15.64-30.5,45.78-49.27S455.16,170.91,460.46,179.43Z" style="fill:#E3B9B9"></path><path d="M466,188.14c5.3,8.52-15.16,30.63-45.3,49.4s-58.87,27.07-64.17,18.54,14.84-30.66,45-49.43S460.68,179.61,466,188.14Z" style="fill:#263238"></path><path d="M466,188.16a6.9,6.9,0,0,0-2.08-1.89,10.84,10.84,0,0,0-3.23-1.1,23.32,23.32,0,0,0-4.68-.26c-7.08.3-17.08,3.13-28.66,8.22a212.71,212.71,0,0,0-38.4,22.29,165.16,165.16,0,0,0-20,16.91A75.49,75.49,0,0,0,360,242.92a28.88,28.88,0,0,0-3.28,6.22,12.22,12.22,0,0,0-.73,3.42,5.34,5.34,0,0,0,3.35,5.52,11.64,11.64,0,0,0,3.39.9,28,28,0,0,0,7-.16,74.58,74.58,0,0,0,13.44-3.31,164.54,164.54,0,0,0,24-10.49,226.07,226.07,0,0,0,20.39-12.2,199.43,199.43,0,0,0,16.61-12.36c9.72-8.08,16.75-15.74,20.2-21.93a23.41,23.41,0,0,0,1.88-4.29,11.57,11.57,0,0,0,.46-3.38,6.83,6.83,0,0,0-.77-2.7l.35.63a6.12,6.12,0,0,1,.52,2.06,11,11,0,0,1-.41,3.43,23.16,23.16,0,0,1-1.85,4.34c-3.42,6.27-10.43,14-20.14,22.13a201.64,201.64,0,0,1-16.61,12.43,221.54,221.54,0,0,1-20.41,12.26A164.64,164.64,0,0,1,383.31,256a75,75,0,0,1-13.53,3.33,28.09,28.09,0,0,1-7.16.16,11.62,11.62,0,0,1-3.53-.94,5.83,5.83,0,0,1-3.66-6,12.78,12.78,0,0,1,.76-3.58,29.41,29.41,0,0,1,3.34-6.33,76.14,76.14,0,0,1,9-10.66A165.1,165.1,0,0,1,388.63,215a211.1,211.1,0,0,1,38.53-22.24c11.62-5.06,21.67-7.84,28.81-8.08a23.45,23.45,0,0,1,4.71.3,11.07,11.07,0,0,1,3.25,1.17,6.1,6.1,0,0,1,1.61,1.38C465.83,188,466,188.16,466,188.16Z" style="fill:#455a64"></path><ellipse cx="411.67" cy="221.73" rx="60.68" ry="15.44" transform="translate(-54.99 251.16) rotate(-31.92)" style="opacity:0.4"></ellipse><path d="M360.16,253.8s10.62-3.2,24.49-12.5,34.12-41.41,34.12-41.41S355.47,234.44,360.16,253.8Z" style="opacity:0.2"></path></g><g id="freepik--graduation-hat-1--inject-15"><path d="M60.54,189.06c.05.33-2,1-5.47,1.43a46.1,46.1,0,0,1-6.11.31,55.2,55.2,0,0,1-7.47-.66,56.47,56.47,0,0,1-7.3-1.71,45.43,45.43,0,0,1-5.71-2.21c-3.15-1.48-4.89-2.77-4.74-3.07.34-.7,8,2.85,18.16,4.42S60.43,188.29,60.54,189.06Z" style="fill:#E3B9B9"></path><path d="M24,176.55a11.83,11.83,0,0,1,4.43-6.82,10.48,10.48,0,0,0,6.39,7.12,22.65,22.65,0,0,1-2.4-6.87,2.67,2.67,0,0,1,.13-1.83,2.75,2.75,0,0,1,1.66-1,39,39,0,0,1,8.06-1.68A12.83,12.83,0,0,0,47.8,176c2.45,1.66,5.39,2.41,8.09,3.62s5.37,3.16,6.14,6l.09,3.14c-6.12,2.62-13.2,2.38-19.56.39s-12.07-5.61-17.4-9.6a3.42,3.42,0,0,1-1.09-1.15A2.92,2.92,0,0,1,24,176.55Z" style="fill:#E3B9B9"></path><path d="M52.59,185.11a23.58,23.58,0,0,1,4.46.5,24,24,0,0,1,4.41.8,16.5,16.5,0,0,1-4.49-.29A16.28,16.28,0,0,1,52.59,185.11Z" style="fill:#263238"></path><path d="M42.14,183.78c0-.07,1,.54,2.69,1.32a30.16,30.16,0,0,0,6.82,2.21,29.26,29.26,0,0,0,7.15.45c1.84-.11,3-.31,3-.23s-.27.12-.77.24a16.3,16.3,0,0,1-2.18.36,25.06,25.06,0,0,1-14.16-2.7,17,17,0,0,1-1.9-1.14C42.35,184,42.12,183.81,42.14,183.78Z" style="fill:#263238"></path><path d="M55.31,181.85a11,11,0,0,1,3.43,1.6,10.86,10.86,0,0,1,3,2.29,19,19,0,0,1-3.28-1.84A19.85,19.85,0,0,1,55.31,181.85Z" style="fill:#263238"></path><path d="M221.21,175.74a5.52,5.52,0,0,0-.54-.85c-.27-3.27-18.11-30.79-18.11-30.79L96.47,204l17.44,29.46.07,0c6.22,8.23,33.53,3,62.35-12.2C206.09,205.54,226.18,185.17,221.21,175.74Z" style="fill:#263238"></path><path d="M221.22,175.78c-.16-.3-1-2.45-1.3-3.21a75.94,75.94,0,0,0-5-8.77c5,9.43-15.67,30.31-45.43,46-28.77,15.17-56,20.42-62.31,12.24l6.79,11.46.07,0c6.22,8.24,33.53,3,62.35-12.19C206.1,205.57,226.19,185.21,221.22,175.78Z" style="fill:#E3B9B9"></path><g style="opacity:0.4"><path d="M113.48,232.77,97.82,206.28l45.36-21.55a64.71,64.71,0,0,1-22.77,45.37c-1.85,1.54-4,3.05-6.39,3"></path></g><g style="opacity:0.1"><path d="M205.3,202.1c-7-14.75-15.75-28.57-24.52-42.34l-15.44,5.36L155,171l25.48,43.27a38.66,38.66,0,0,0,2.24,3.47A157.25,157.25,0,0,0,205.3,202.1Z" style="fill:#fff"></path></g><path d="M66.11,154.14,57,219.93l2.25,4.37L219,149.72l-4.41-61.41-3.81-5.57L69.24,149.87A5.56,5.56,0,0,0,66.11,154.14Z" style="fill:#263238"></path><path d="M57,219.93l9.13-65.79a5.56,5.56,0,0,1,3.13-4.27L210.78,82.74l5.38,61.78Z" style="fill:#fff;opacity:0.1"></path><path d="M64.06,188.23c10.14,2.62,20.42.17,29.6-4.44s17.83-11.25,25.5-18.28a148.17,148.17,0,0,0,12.3-12.76c1-1.21-.72-3-1.77-1.77a141.22,141.22,0,0,1-21.93,20.82c-7.89,6-16.61,11.58-26.33,14a34.12,34.12,0,0,1-16.71,0,1.25,1.25,0,0,0-.66,2.41Z" style="fill:#E3B9B9"></path><polygon points="210.78 82.74 214.59 88.31 219 149.72 216.16 144.52 210.78 82.74" style="fill:#fff;opacity:0.30000000000000004"></polygon><g style="opacity:0.30000000000000004"><path d="M219,149.72c.06.13-35.43,16.82-79.27,37.29s-79.45,37-79.51,36.83,35.43-16.83,79.29-37.3S218.94,149.58,219,149.72Z" style="fill:#fff"></path></g><g style="opacity:0.30000000000000004"><path d="M136.73,150.57c-2.75,2-4.38,5.16-6,8.15-9.59,17.46-19.9,31-35.66,43.18l19.58-9.23C120.59,184.48,133.67,164.13,136.73,150.57Z"></path></g><path d="M146.71,143.41c.31.1.29,1.52-.68,3.56a14.15,14.15,0,0,1-14.75,7.67c-2.23-.38-3.41-1.18-3.31-1.49s1.42-.23,3.41-.35a18.21,18.21,0,0,0,7.32-1.91,18,18,0,0,0,5.76-4.89C145.7,144.44,146.34,143.29,146.71,143.41Z" style="fill:#E3B9B9"></path><path d="M146,143.66c1.05,2.23-2.1,5.93-7.05,8.27s-9.8,2.43-10.86.2,2.1-5.94,7.05-8.27S144.92,141.43,146,143.66Z" style="fill:#263238"></path><path d="M140.14,139.18a12,12,0,0,0-6.69.89A9.06,9.06,0,0,0,128,151.52L146,143.66A9.77,9.77,0,0,0,140.14,139.18Z" style="fill:#263238"></path><path d="M69,188a4.83,4.83,0,1,1-4-5.56A4.83,4.83,0,0,1,69,188Z" style="fill:#E3B9B9"></path><path d="M69,188s0-.43,0-1.18a4.84,4.84,0,0,0-1.33-2.79,4.6,4.6,0,1,0-1.22,7.28,4.91,4.91,0,0,0,2.17-2.21c.32-.68.38-1.11.43-1.1s0,.11,0,.31a4.19,4.19,0,0,1-.24.87,4.77,4.77,0,0,1-2.18,2.45,5,5,0,0,1-4.82,0,5.05,5.05,0,0,1,1.58-9.39,5,5,0,0,1,4.56,1.55,4.81,4.81,0,0,1,1.26,3,4.25,4.25,0,0,1-.06.9Q69,188,69,188Z" style="fill:#263238"></path></g></svg>
